<svg id="Слой_1" data-name="Слой 1" xmlns="http://www.w3.org/2000/svg" xmlns:xlink="http://www.w3.org/1999/xlink" viewBox="0 0 528 89"><title>NDI main</title><path d="M75.75,48.2V69.62H72.69V60.07H60.39v9.55H57.33V48.2h3.06v9.21h12.3V48.2Z"/><path d="M102.74,67V74.3H99.89V69.62H82.27l0,4.68H79.39l0-7.34h1q2-.12,2.85-3.2a40.36,40.36,0,0,0,1-8.67l.21-6.88H99.59V67Zm-16.45-4.1A7.32,7.32,0,0,1,84.47,67H96.56V50.86H87.17L87,55.36A50.16,50.16,0,0,1,86.29,62.85Z"/><path d="M107.11,48.2h3V69.62h-3Z"/><path d="M135.44,48.2V69.62h-3V50.86H120V69.62h-3V48.2Z"/><path d="M157.2,50.19a6.74,6.74,0,0,1,2.39,5.48,6.74,6.74,0,0,1-2.39,5.48,9.92,9.92,0,0,1-6.55,2h-5.29v6.49H142.3V48.2h8.35A9.93,9.93,0,0,1,157.2,50.19Zm-2.2,9a4.92,4.92,0,0,0,0-7.13,6.91,6.91,0,0,0-4.44-1.24h-5.2v9.61h5.2A6.91,6.91,0,0,0,155,59.23Z"/><path d="M168.12,68.44A10.5,10.5,0,0,1,164,64.51a11.3,11.3,0,0,1,0-11.2,10.5,10.5,0,0,1,4.08-3.93,12.65,12.65,0,0,1,11.66,0,10.44,10.44,0,0,1,4.07,3.92,11.47,11.47,0,0,1,0,11.23,10.44,10.44,0,0,1-4.07,3.92,12.65,12.65,0,0,1-11.66,0Zm10.08-2.37a7.86,7.86,0,0,0,3-3,8.69,8.69,0,0,0,0-8.41,7.86,7.86,0,0,0-3-3A8.42,8.42,0,0,0,174,50.68a8.58,8.58,0,0,0-4.27,1.07,7.79,7.79,0,0,0-3,3,8.69,8.69,0,0,0,0,8.41,7.79,7.79,0,0,0,3,3A8.58,8.58,0,0,0,174,67.14,8.42,8.42,0,0,0,178.2,66.07Z"/><path d="M206,67v2.66H190.45V48.2h15.11v2.66H193.51v6.58h10.74V60H193.51V67Z"/><path d="M218.45,60.19H214v9.42h-3V48.2h3v9.3h4.53l6.73-9.3h3.27l-7.65,10.37,8,11h-3.49Z"/><path d="M246.72,50.86h-7.34V69.62h-3V50.86h-7.31V48.2h17.65Z"/><path d="M265.53,50.19a6.74,6.74,0,0,1,2.39,5.48,6.74,6.74,0,0,1-2.39,5.48,9.92,9.92,0,0,1-6.55,2h-5.29v6.49h-3.06V48.2H259A9.92,9.92,0,0,1,265.53,50.19Zm-2.2,9a4.92,4.92,0,0,0,0-7.13,6.91,6.91,0,0,0-4.44-1.24h-5.2v9.61h5.2A6.91,6.91,0,0,0,263.33,59.23Z"/><path d="M287.9,67v2.66H272.36V48.2h15.11v2.66H275.42v6.58h10.74V60H275.42V67Z"/><path d="M300.35,60.19h-4.47v9.42h-3V48.2h3v9.3h4.53l6.73-9.3h3.27l-7.65,10.37,8,11H307.3Z"/><path d="M317.85,68.44a10.51,10.51,0,0,1-4.08-3.93,11.31,11.31,0,0,1,0-11.2,10.51,10.51,0,0,1,4.08-3.93,12.65,12.65,0,0,1,11.66,0,10.44,10.44,0,0,1,4.07,3.92,11.46,11.46,0,0,1,0,11.23,10.45,10.45,0,0,1-4.07,3.92,12.65,12.65,0,0,1-11.66,0Zm10.08-2.37a7.86,7.86,0,0,0,3-3,8.69,8.69,0,0,0,0-8.41,7.87,7.87,0,0,0-3-3,8.42,8.42,0,0,0-4.24-1.07,8.58,8.58,0,0,0-4.27,1.07,7.8,7.8,0,0,0-3,3,8.69,8.69,0,0,0,0,8.41,7.79,7.79,0,0,0,3,3,8.58,8.58,0,0,0,4.27,1.07A8.42,8.42,0,0,0,327.93,66.07Z"/><path d="M358.6,48.2V69.62h-3.06V60.07h-12.3v9.55h-3.06V48.2h3.06v9.21h12.3V48.2Z"/><path d="M369.24,68.44a10.46,10.46,0,0,1-4.05-3.92,11.46,11.46,0,0,1,0-11.23,10.43,10.43,0,0,1,4.07-3.92A11.91,11.91,0,0,1,375.06,48a12.13,12.13,0,0,1,4.59.84,9.4,9.4,0,0,1,3.55,2.49l-2,1.93a8,8,0,0,0-6-2.54,8.73,8.73,0,0,0-4.31,1.07,7.77,7.77,0,0,0-3,3,8.69,8.69,0,0,0,0,8.41,7.77,7.77,0,0,0,3,3,8.73,8.73,0,0,0,4.31,1.07,8,8,0,0,0,6-2.57l2,1.93A9.51,9.51,0,0,1,379.64,69a12.06,12.06,0,0,1-4.6.86A11.83,11.83,0,0,1,369.24,68.44Z"/><path d="M402.08,50.86h-7.34V69.62h-3V50.86h-7.31V48.2h17.65Z"/><path d="M420.9,50.19a6.74,6.74,0,0,1,2.39,5.48,6.74,6.74,0,0,1-2.39,5.48,9.92,9.92,0,0,1-6.55,2h-5.29v6.49H406V48.2h8.35A9.92,9.92,0,0,1,420.9,50.19Zm-2.2,9a4.92,4.92,0,0,0,0-7.13,6.91,6.91,0,0,0-4.44-1.24h-5.2v9.61h5.2A6.91,6.91,0,0,0,418.69,59.23Z"/><path d="M444.79,48.2l-9.51,17.65A8.65,8.65,0,0,1,432.61,69a5.82,5.82,0,0,1-3.33,1,7.14,7.14,0,0,1-2.88-.64L427.2,67a6.18,6.18,0,0,0,2,.4,3.85,3.85,0,0,0,3.33-2.14l.49-.76L424.41,48.2h3.27l6.95,13.58,7.13-13.58Z"/><path d="M455.59,60.19h-4.47v9.42h-3V48.2h3v9.3h4.53l6.73-9.3h3.27L458,58.57l8,11h-3.49Z"/><path d="M490.65,67v7.53h-2.85V69.62H469.36V48.2h3V67h11.93V48.2h3V67Z"/><path d="M494.9,48.2h3V69.62h-3Z"/><path d="M520.48,48.2V69.62h-3V63.37h-5.91a8.09,8.09,0,0,1-.83,0l-4.28,6.27h-3.24L508,62.82a6.66,6.66,0,0,1-3.52-2.55,7.54,7.54,0,0,1-1.22-4.36,7.12,7.12,0,0,1,2.34-5.68,9.3,9.3,0,0,1,6.32-2ZM507.71,59.53a5.91,5.91,0,0,0,4.11,1.27h5.66V50.86H512a6.22,6.22,0,0,0-4.22,1.29,4.69,4.69,0,0,0-1.47,3.73A4.7,4.7,0,0,0,507.71,59.53Z"/><path d="M69.72,29V33H68.19V30.44H58.75l0,2.51H57.21l0-3.93h.56q1.08-.07,1.52-1.71a21.61,21.61,0,0,0,.54-4.65L60,19H68V29Zm-8.81-2.2a3.93,3.93,0,0,1-1,2.2h6.47V20.4h-5l-.08,2.41A27,27,0,0,1,60.91,26.82Z"/><path d="M81.83,19V30.44H80.19V25.33H73.6v5.11H72V19H73.6V23.9h6.59V19Z"/><path d="M85.4,19H87V30.44H85.4Z"/><path d="M100.48,19V30.44H98.87v-10H92.22v10H90.59V19Z"/><path d="M112,20A3.61,3.61,0,0,1,113.31,23,3.61,3.61,0,0,1,112,25.9,5.31,5.31,0,0,1,108.52,27h-2.83v3.47H104V19h4.47A5.32,5.32,0,0,1,112,20Zm-1.18,4.84a2.31,2.31,0,0,0,.82-1.91,2.31,2.31,0,0,0-.82-1.91,3.7,3.7,0,0,0-2.38-.66h-2.79v5.15h2.79A3.7,3.7,0,0,0,110.85,24.88Z"/><path d="M117.78,29.81a5.63,5.63,0,0,1-2.19-2.11,6.05,6.05,0,0,1,0-6,5.63,5.63,0,0,1,2.19-2.11,6.78,6.78,0,0,1,6.24,0,5.6,5.6,0,0,1,2.18,2.1,6.15,6.15,0,0,1,0,6,5.61,5.61,0,0,1-2.18,2.1,6.78,6.78,0,0,1-6.24,0Zm5.4-1.27A4.21,4.21,0,0,0,124.77,27a4.65,4.65,0,0,0,0-4.51,4.21,4.21,0,0,0-1.59-1.58,4.51,4.51,0,0,0-2.27-.57,4.6,4.6,0,0,0-2.29.57A4.17,4.17,0,0,0,117,22.45,4.66,4.66,0,0,0,117,27a4.17,4.17,0,0,0,1.61,1.58,4.6,4.6,0,0,0,2.29.57A4.51,4.51,0,0,0,123.18,28.54Z"/><path d="M138.55,25.49a3,3,0,0,1-.49,4.14,5.22,5.22,0,0,1-3.17.82h-5.24V19h4.93a5,5,0,0,1,2.94.76,2.53,2.53,0,0,1,1.06,2.19,2.67,2.67,0,0,1-.47,1.59,2.8,2.8,0,0,1-1.32,1A3.19,3.19,0,0,1,138.55,25.49ZM131.27,24h3.2a3,3,0,0,0,1.83-.48,1.86,1.86,0,0,0,0-2.79,3,3,0,0,0-1.82-.48h-3.2Zm6.23,3.16a1.65,1.65,0,0,0-.66-1.45,3.43,3.43,0,0,0-2-.47h-3.59v3.88h3.59Q137.5,29.15,137.5,27.18Z"/><path d="M143.91,29.81a5.61,5.61,0,0,1-2.17-2.1,6.15,6.15,0,0,1,0-6,5.6,5.6,0,0,1,2.18-2.1,6.38,6.38,0,0,1,3.11-.76,6.5,6.5,0,0,1,2.46.45,5,5,0,0,1,1.9,1.34l-1.07,1a4.27,4.27,0,0,0-3.23-1.36,4.68,4.68,0,0,0-2.31.57,4.16,4.16,0,0,0-1.61,1.58,4.65,4.65,0,0,0,0,4.51,4.16,4.16,0,0,0,1.61,1.58,4.68,4.68,0,0,0,2.31.57,4.28,4.28,0,0,0,3.23-1.38l1.07,1a5.1,5.1,0,0,1-1.91,1.34,6.47,6.47,0,0,1-2.47.46A6.34,6.34,0,0,1,143.91,29.81Z"/><path d="M161.83,23.89a3.34,3.34,0,0,1,1.09,2.7,3.53,3.53,0,0,1-1.17,2.87,5.08,5.08,0,0,1-3.35,1h-4.74V19h1.62v4h3.41A4.75,4.75,0,0,1,161.83,23.89Zm-1.31,4.61a2.33,2.33,0,0,0,.76-1.88q0-2.36-3-2.36h-3v4.88h3A3.29,3.29,0,0,0,160.52,28.5Z"/><path d="M169.34,25.4h-2.39v5h-1.61V19h1.61v5h2.43L173,19h1.75l-4.1,5.56,4.29,5.92h-1.87Z"/><path d="M183.91,27.58h-6.1l-1.26,2.87h-1.69L180.06,19h1.62l5.21,11.47h-1.72Zm-.57-1.31-2.47-5.62-2.47,5.62Z"/><path d="M204.35,28.26a7.35,7.35,0,0,1-4.49,1.39v1.21h-1.52V29.66a7.46,7.46,0,0,1-4.5-1.41,4.33,4.33,0,0,1-1.6-3.56,4.35,4.35,0,0,1,1.6-3.57,7.46,7.46,0,0,1,4.5-1.41V18.55h1.52v1.16a7.4,7.4,0,0,1,4.48,1.42,4.35,4.35,0,0,1,1.6,3.56A4.36,4.36,0,0,1,204.35,28.26Zm-9.35-1a5.78,5.78,0,0,0,3.33,1.07V21A5.8,5.8,0,0,0,195,22.07a3.18,3.18,0,0,0-1.16,2.62A3.17,3.17,0,0,0,195,27.31Zm8.21,0a3.21,3.21,0,0,0,1.16-2.63,3.15,3.15,0,0,0-1.17-2.6A5.79,5.79,0,0,0,199.86,21v7.38A5.76,5.76,0,0,0,203.21,27.31Z"/><path d="M208.46,19h1.62V30.44h-1.62Z"/><path d="M222.88,19V30.44h-1.61v-10h-5.08l-.11,3.36a23.9,23.9,0,0,1-.39,3.85,4.8,4.8,0,0,1-1,2.22,2.24,2.24,0,0,1-1.77.75,4.24,4.24,0,0,1-1-.13L212,29a2.13,2.13,0,0,0,.52.07,1.35,1.35,0,0,0,1.13-.57,4.11,4.11,0,0,0,.64-1.7,20.81,20.81,0,0,0,.28-3L214.8,19Z"/><path d="M226.45,19h1.62V30.44h-1.62Z"/><path d="M240.06,19V30.44h-1.61V27.1h-3.16l-.44,0-2.29,3.36h-1.74l2.54-3.64a3.57,3.57,0,0,1-1.88-1.37,4,4,0,0,1-.66-2.33,3.81,3.81,0,0,1,1.25-3A5,5,0,0,1,235.45,19ZM233.21,25a3.17,3.17,0,0,0,2.21.68h3V20.4h-2.93a3.34,3.34,0,0,0-2.26.69,2.52,2.52,0,0,0-.79,2A2.52,2.52,0,0,0,233.21,25Z"/><path d="M259,29V33h-1.52V30.44H248L248,33h-1.52l0-3.93H247q1.08-.07,1.52-1.71a21.6,21.6,0,0,0,.54-4.65l.12-3.69h8.06V29Zm-8.81-2.2a3.92,3.92,0,0,1-1,2.2h6.47V20.4h-5l-.08,2.41A26.88,26.88,0,0,1,250.16,26.82Z"/><path d="M269.54,29v1.43h-8.33V19h8.1V20.4h-6.46v3.52h5.75v1.39h-5.75V29Z"/><path d="M280.09,20A3.61,3.61,0,0,1,281.37,23a3.61,3.61,0,0,1-1.28,2.93A5.31,5.31,0,0,1,276.58,27h-2.83v3.47h-1.64V19h4.47A5.31,5.31,0,0,1,280.09,20Zm-1.18,4.84a2.32,2.32,0,0,0,.82-1.91,2.32,2.32,0,0,0-.82-1.91,3.7,3.7,0,0,0-2.38-.66h-2.79v5.15h2.79A3.7,3.7,0,0,0,278.91,24.88Z"/><path d="M293,25.4h-2.18v5h-1.61v-5h-2.2l-3.21,5h-1.92l3.79-6L282.21,19H284L287,24h2.23V19h1.61v5h2.2l3.08-5h1.75l-3.51,5.54,3.79,5.93h-1.92Z"/><path d="M307.18,27.58h-6.1l-1.26,2.87h-1.69L303.33,19H305l5.21,11.47h-1.72Zm-.57-1.31-2.47-5.62-2.47,5.62Z"/><path d="M321.05,25.49a3,3,0,0,1-.49,4.14,5.21,5.21,0,0,1-3.17.82h-5.24V19h4.93a5,5,0,0,1,2.94.76,2.53,2.53,0,0,1,1.06,2.19,2.67,2.67,0,0,1-.47,1.59,2.81,2.81,0,0,1-1.32,1A3.19,3.19,0,0,1,321.05,25.49ZM313.77,24H317a3,3,0,0,0,1.83-.48,1.86,1.86,0,0,0,0-2.79,3,3,0,0,0-1.82-.48h-3.2ZM320,27.18a1.65,1.65,0,0,0-.66-1.45,3.43,3.43,0,0,0-2-.47h-3.59v3.88h3.59Q320,29.15,320,27.18Z"/><path d="M334.25,19V30.44h-1.64V25.33H326v5.11h-1.64V19H326V23.9h6.59V19Z"/><path d="M339.86,29.81a5.64,5.64,0,0,1-2.19-2.11,6.05,6.05,0,0,1,0-6,5.63,5.63,0,0,1,2.19-2.11,6.77,6.77,0,0,1,6.24,0,5.58,5.58,0,0,1,2.18,2.1,6.14,6.14,0,0,1,0,6,5.59,5.59,0,0,1-2.18,2.1,6.77,6.77,0,0,1-6.24,0Zm5.4-1.27A4.21,4.21,0,0,0,346.85,27a4.65,4.65,0,0,0,0-4.51,4.21,4.21,0,0,0-1.59-1.58A4.51,4.51,0,0,0,343,20.3a4.6,4.6,0,0,0-2.29.57,4.18,4.18,0,0,0-1.61,1.58,4.65,4.65,0,0,0,0,4.51,4.18,4.18,0,0,0,1.61,1.58,4.6,4.6,0,0,0,2.29.57A4.51,4.51,0,0,0,345.26,28.54Z"/><path d="M359.23,20.4h-5.9l0,10h-1.62V19h7.52Z"/><path d="M361.79,29.81a5.63,5.63,0,0,1-2.19-2.11,6.05,6.05,0,0,1,0-6,5.63,5.63,0,0,1,2.19-2.11,6.78,6.78,0,0,1,6.24,0,5.59,5.59,0,0,1,2.18,2.1,6.14,6.14,0,0,1,0,6,5.59,5.59,0,0,1-2.18,2.1,6.78,6.78,0,0,1-6.24,0Zm5.4-1.27A4.21,4.21,0,0,0,368.78,27a4.66,4.66,0,0,0,0-4.51,4.21,4.21,0,0,0-1.59-1.58,4.51,4.51,0,0,0-2.27-.57,4.6,4.6,0,0,0-2.29.57A4.17,4.17,0,0,0,361,22.45,4.65,4.65,0,0,0,361,27a4.17,4.17,0,0,0,1.61,1.58,4.6,4.6,0,0,0,2.29.57A4.51,4.51,0,0,0,367.19,28.54Z"/><path d="M387.94,19V30.44h-1.61v-10h-6.65v10h-1.62V19Z"/><path d="M391.52,19h1.62V30.44h-1.62Z"/><path d="M407.49,29V33H406V30.44h-9.44l0,2.51H395L395,29h.56q1.08-.07,1.52-1.71a21.66,21.66,0,0,0,.54-4.65l.11-3.69h8.06V29Zm-8.81-2.2a3.93,3.93,0,0,1-1,2.2h6.47V20.4h-5l-.08,2.41A26.88,26.88,0,0,1,398.69,26.82Z"/><path d="M419.62,19V30.44H418v-10h-6.65v10h-1.62V19Z"/><path d="M431.18,20A3.61,3.61,0,0,1,432.45,23a3.61,3.61,0,0,1-1.28,2.93A5.31,5.31,0,0,1,427.67,27h-2.83v3.47h-1.64V19h4.47A5.32,5.32,0,0,1,431.18,20ZM430,24.88a2.32,2.32,0,0,0,.82-1.91,2.32,2.32,0,0,0-.82-1.91,3.7,3.7,0,0,0-2.38-.66h-2.79v5.15h2.79A3.7,3.7,0,0,0,430,24.88Z"/><path d="M434.73,19h1.62v8.85L443.14,19h1.51V30.44H443V21.61l-6.8,8.83h-1.51Z"/><path d="M450.12,29.81a5.52,5.52,0,0,1-2.07-2.1,6.38,6.38,0,0,1,0-6,5.52,5.52,0,0,1,2.07-2.1,5.76,5.76,0,0,1,3-.76,6.84,6.84,0,0,1,2.56.46,4.93,4.93,0,0,1,1.92,1.34l-1,1a4.43,4.43,0,0,0-3.36-1.36,4.16,4.16,0,0,0-2,.48,4,4,0,0,0-1.47,1.35,4.34,4.34,0,0,0-.69,2h5.56v1.34H449a4.4,4.4,0,0,0,.74,1.88,4,4,0,0,0,1.46,1.28,4.17,4.17,0,0,0,2,.46,4.46,4.46,0,0,0,3.36-1.36l1,1a4.91,4.91,0,0,1-1.93,1.34,6.85,6.85,0,0,1-2.55.46A5.76,5.76,0,0,1,450.12,29.81Z"/><path d="M470.46,30.44l0-8.36-4.15,7h-.75l-4.15-6.92v8.31h-1.57V19h1.34L466,27,470.67,19H472l0,11.47Z"/><path d="M477.63,29.81a5.6,5.6,0,0,1-2.17-2.1,6.15,6.15,0,0,1,0-6,5.59,5.59,0,0,1,2.18-2.1,6.38,6.38,0,0,1,3.11-.76,6.5,6.5,0,0,1,2.46.45,5,5,0,0,1,1.9,1.34l-1.07,1a4.27,4.27,0,0,0-3.23-1.36,4.68,4.68,0,0,0-2.31.57,4.15,4.15,0,0,0-1.61,1.58,4.65,4.65,0,0,0,0,4.51,4.15,4.15,0,0,0,1.61,1.58,4.68,4.68,0,0,0,2.31.57A4.28,4.28,0,0,0,484,27.74l1.07,1a5.1,5.1,0,0,1-1.91,1.34,6.46,6.46,0,0,1-2.47.46A6.33,6.33,0,0,1,477.63,29.81Z"/><path d="M495.12,20.4h-3.93v10h-1.61v-10h-3.92V19h9.46Z"/><path d="M506,25.49a3,3,0,0,1-.49,4.14,5.22,5.22,0,0,1-3.17.82h-5.24V19h4.93a5,5,0,0,1,2.94.76,2.53,2.53,0,0,1,1.06,2.19,2.67,2.67,0,0,1-.47,1.59,2.8,2.8,0,0,1-1.32,1A3.18,3.18,0,0,1,506,25.49ZM498.74,24h3.2a3,3,0,0,0,1.83-.48,1.85,1.85,0,0,0,0-2.79,3,3,0,0,0-1.82-.48h-3.2ZM505,27.18a1.65,1.65,0,0,0-.66-1.45,3.43,3.43,0,0,0-2-.47h-3.59v3.88h3.59Q505,29.15,505,27.18Z"/><path d="M516.82,27.58h-6.1l-1.26,2.87h-1.69L513,19h1.62l5.21,11.47h-1.72Zm-.57-1.31-2.47-5.62-2.47,5.62Z"/><image width="1094" height="1796" transform="scale(0.05)" xlink:href="../../11112333.png"/></svg>