<svg id="Слой_1" data-name="Слой 1" xmlns="http://www.w3.org/2000/svg" viewBox="0 0 1115 604"><defs><style>.cls-1{fill:#e6e6e6;}.cls-2{fill:#fff;}.cls-3,.cls-4{fill:none;stroke-miterlimit:10;}.cls-3{stroke:#e6e6e6;stroke-width:6px;}.cls-4{stroke:#fff;stroke-width:18px;}</style></defs><title>NDI main</title><rect class="cls-1" width="1115" height="604"/><circle class="cls-2" cx="232.5" cy="153.5" r="80.5"/><polyline class="cls-3" points="232 73 232 154 299 154"/><circle class="cls-2" cx="740.2" cy="109.25" r="39.25"/><path class="cls-2" d="M817.07,236a76.87,76.87,0,1,0-153.73,0"/><polyline class="cls-2" points="706 334 676 367.33 676 497 804 497 804 334 706 334"/><line class="cls-3" x1="696" y1="387" x2="791" y2="387"/><line class="cls-3" x1="696" y1="403" x2="791" y2="403"/><line class="cls-3" x1="696" y1="419" x2="791" y2="419"/><line class="cls-3" x1="696" y1="435" x2="791" y2="435"/><line class="cls-3" x1="696" y1="451" x2="791" y2="451"/><line class="cls-3" x1="696" y1="467" x2="791" y2="467"/><line class="cls-4" x1="176.71" y1="495.37" x2="224.35" y2="401.08"/><line class="cls-4" x1="289" y1="495.37" x2="241.36" y2="401.08"/><circle class="cls-4" cx="232.85" cy="380.67" r="18.16"/><line class="cls-4" x1="232.85" y1="360.33" x2="232.85" y2="332"/><line class="cls-4" x1="185.64" y1="441.69" x2="279.34" y2="441.69"/></svg>