<svg id="Слой_1" data-name="Слой 1" xmlns="http://www.w3.org/2000/svg" viewBox="0 0 62 112"><defs><style>.cls-1{fill:#ccc;}</style></defs><title>NDI main</title><path class="cls-1" d="M55.25,49.95A19.19,19.19,0,0,1,59.6,62.6a21.56,21.56,0,0,1-3.45,11.75A24.54,24.54,0,0,1,45.5,83.2q-7.2,3.4-17.9,3.4A69.23,69.23,0,0,1,12.85,85,45.88,45.88,0,0,1,0,80.3L8,62.9a36.93,36.93,0,0,0,9.25,3.8A37.53,37.53,0,0,0,26.8,68a13.47,13.47,0,0,0,6.6-1.4,4.38,4.38,0,0,0,2.5-4q0-4.8-8.3-4.8H18.3V43.3L28.6,32.8H3.6V15H55.8V29.5l-13,13.2Q50.9,44.7,55.25,49.95Z"/></svg>