<svg id="Слой_1" data-name="Слой 1" xmlns="http://www.w3.org/2000/svg" viewBox="0 0 61.9 112"><defs><style>.cls-1{fill:#ccc;}</style></defs><title>NDI main</title><path class="cls-1" d="M53.15,45.85Q60.1,52,60.1,62a22.57,22.57,0,0,1-3.45,12.15,24.59,24.59,0,0,1-10.65,9Q38.8,86.6,28.1,86.6A69.23,69.23,0,0,1,13.35,85,45.87,45.87,0,0,1,.5,80.3l8-17.4a39.09,39.09,0,0,0,9.25,3.8A36.39,36.39,0,0,0,27.2,68a13.37,13.37,0,0,0,6.65-1.45,4.47,4.47,0,0,0,2.55-4,4,4,0,0,0-2.3-3.75q-2.3-1.25-8.3-1.25H5.5L9,15H55.5V32.8H28.4l-.5,6.9h3.6Q46.2,39.7,53.15,45.85Z"/></svg>