<svg id="Слой_1" data-name="Слой 1" xmlns="http://www.w3.org/2000/svg" viewBox="0 0 66.1 112"><defs><style>.cls-1{fill:#ccc;}</style></defs><title>NDI main</title><path class="cls-1" d="M52.8,42.5a22.4,22.4,0,0,1,8.8,7.9,21.06,21.06,0,0,1,3.3,11.7A22.64,22.64,0,0,1,61.15,75,24.26,24.26,0,0,1,50.9,83.6a34,34,0,0,1-14.4,3,38,38,0,0,1-17.65-3.9A27.56,27.56,0,0,1,7.1,71.1Q2.9,63.4,2.9,52.2q0-12,4.85-20.8A32.53,32.53,0,0,1,21.35,18,43.12,43.12,0,0,1,41.7,13.4a48.55,48.55,0,0,1,12,1.45,32.33,32.33,0,0,1,9.7,4L54.9,35.4a21.34,21.34,0,0,0-12.7-3.7,16,16,0,0,0-10.05,3A14.38,14.38,0,0,0,27,43.6q5.5-3.9,13.9-3.9A25.87,25.87,0,0,1,52.8,42.5ZM40.1,68.4a6.83,6.83,0,0,0,2-5.2,7,7,0,0,0-2-5.25,7.14,7.14,0,0,0-5.2-2,7.13,7.13,0,0,0-5.2,2,7,7,0,0,0-2,5.25,6.83,6.83,0,0,0,2,5.2,7.23,7.23,0,0,0,5.2,1.9A7.24,7.24,0,0,0,40.1,68.4Z"/></svg>