<svg id="Слой_1" data-name="Слой 1" xmlns="http://www.w3.org/2000/svg" viewBox="0 0 62.1 112"><defs><style>.cls-1{fill:#ccc;}</style></defs><title>NDI main</title><path class="cls-1" d="M60.2,66.7V85H4.1V70.5L29.4,47.1a20.89,20.89,0,0,0,4.4-5.3,9.57,9.57,0,0,0,1.1-4.3,5,5,0,0,0-1.75-4A7.74,7.74,0,0,0,28.1,32a11.36,11.36,0,0,0-6,1.7,11.16,11.16,0,0,0-4.3,4.8L0,29.6A29.21,29.21,0,0,1,11.7,17.75q7.7-4.35,18.6-4.35A37.54,37.54,0,0,1,45,16.1a23,23,0,0,1,10,7.7,19.18,19.18,0,0,1,3.6,11.5,24.53,24.53,0,0,1-2.45,10.85Q53.7,51.2,46.6,57.6l-10,9.1Z"/></svg>